<svg version="1" xmlns="http://www.w3.org/2000/svg" width="341.333" height="341.333" viewBox="0 0 256.000000 256.000000"><path d="M106.5 4.9c-42.1 7.6-76.9 35.3-93.8 74.8-3.4 8.1-7.6 23.4-8.5 31.4-1.3 11.6-.7 31.9 1.2 40.8 5.4 26 16 45.5 34.6 64.1 19.6 19.6 42.7 31.5 69.5 35.7 6.5 1 30.5 1 37 0 26.3-4.1 49.5-15.8 68.1-34.2 11.7-11.6 14.5-15.1 20.9-26 5-8.6 11.8-24.1 12.9-29.5.3-1.4 1.3-5.9 2.2-10 1.9-8.2 2.5-33.5 1.1-42.8-1.8-11.2-8.2-30.6-12.9-39-1-1.7-2.7-4.8-3.9-6.8-7.1-12.6-23.6-30.1-36.6-38.7-3.7-2.5-10.4-6.3-14.8-8.5-11.3-5.6-20.6-8.7-36-11.8-7.7-1.5-31.2-1.2-41 .5z"/></svg>